<svg xmlns="http://www.w3.org/2000/svg" width="45" height="45" viewBox="0 0 45 45"><defs><style>.a{fill:#333;}.b{fill:none;}</style></defs><path class="a" d="M11.772,30.726a3.591,3.591,0,1,0,3.591,3.591A3.586,3.586,0,0,0,11.772,30.726ZM1,2V5.591H4.591l6.463,13.627-2.424,4.4a3.471,3.471,0,0,0-.449,1.724,3.6,3.6,0,0,0,3.591,3.591H33.317V25.34H12.526a.444.444,0,0,1-.449-.449l.054-.215,1.616-2.926H27.123A3.574,3.574,0,0,0,30.264,19.9L36.692,8.248a1.754,1.754,0,0,0,.215-.862,1.8,1.8,0,0,0-1.8-1.8H8.558L6.871,2H1ZM29.726,30.726a3.591,3.591,0,1,0,3.591,3.591A3.586,3.586,0,0,0,29.726,30.726Z" transform="translate(1.273 2.546)"/><path class="b" d="M0,0H45V45H0Z"/></svg>